# Blender v2.90.1 OBJ File: 'fence.blend'
# www.blender.org
mtllib fence.mtl
o Cube
v 0.116409 1.301916 1.365512
v 0.070894 0.011214 1.379968
v 0.134739 1.330805 1.544273
v 0.070894 0.011214 1.493260
v -0.134739 1.330805 1.328954
v -0.072241 -0.002840 1.388273
v -0.104155 1.319154 1.518857
v -0.070894 0.011214 1.493260
v 0.100142 1.086077 1.356598
v -0.075207 1.080108 1.493810
v 0.100142 1.086077 1.516629
v -0.100142 1.086077 1.356598
v 0.080539 0.675164 1.386453
v 0.106002 0.675165 1.521312
v -0.106002 0.675165 1.351916
v -0.106002 0.675165 1.521312
vt 0.625000 0.500000
vt 0.875000 0.500000
vt 0.875000 0.750000
vt 0.625000 0.750000
vt 0.549807 0.750000
vt 0.625000 1.000000
vt 0.549807 1.000000
vt 0.549807 0.000000
vt 0.625000 0.000000
vt 0.625000 0.250000
vt 0.549807 0.250000
vt 0.125000 0.500000
vt 0.375000 0.500000
vt 0.375000 0.750000
vt 0.125000 0.750000
vt 0.549807 0.500000
vt 0.462403 0.250000
vt 0.462403 0.500000
vt 0.462403 0.750000
vt 0.462403 0.000000
vt 0.462403 1.000000
vt 0.375000 1.000000
vt 0.375000 0.000000
vt 0.375000 0.250000
vn 0.0417 0.9978 -0.0522
vn -0.1105 -0.1063 0.9882
vn -0.9789 -0.1277 0.1593
vn 0.0510 -0.9967 0.0639
vn 0.9933 -0.1062 -0.0447
vn 0.0783 -0.0374 -0.9962
vn 0.0889 -0.0332 -0.9955
vn 0.9961 -0.0203 -0.0860
vn -0.9955 0.0470 0.0819
vn -0.0594 0.0412 0.9974
vn 0.0000 -0.0422 0.9991
vn -0.9987 -0.0512 0.0075
vn 0.9943 -0.0309 -0.1020
vn 0.0802 -0.0207 -0.9966
usemtl Material
s off
f 1/1/1 5/2/1 7/3/1 3/4/1
f 11/5/2 3/4/2 7/6/2 10/7/2
f 10/8/3 7/9/3 5/10/3 12/11/3
f 6/12/4 2/13/4 4/14/4 8/15/4
f 9/16/5 1/1/5 3/4/5 11/5/5
f 12/11/6 5/10/6 1/1/6 9/16/6
f 15/17/7 12/11/7 9/16/7 13/18/7
f 13/18/8 9/16/8 11/5/8 14/19/8
f 16/20/9 10/8/9 12/11/9 15/17/9
f 14/19/10 11/5/10 10/7/10 16/21/10
f 4/14/11 14/19/11 16/21/11 8/22/11
f 8/23/12 16/20/12 15/17/12 6/24/12
f 2/13/13 13/18/13 14/19/13 4/14/13
f 6/24/14 15/17/14 13/18/14 2/13/14
o Cube.006
v 0.116409 1.266195 -1.310269
v 0.070894 0.009969 -1.295813
v 0.134739 1.291877 -1.131507
v 0.070894 0.009969 -1.182521
v -0.134739 1.291877 -1.346827
v -0.072241 -0.002525 -1.287508
v -0.104155 1.281520 -1.156924
v -0.070894 0.009969 -1.182521
v 0.100142 0.965504 -1.319183
v -0.075207 0.960197 -1.181971
v 0.100142 0.965504 -1.159151
v -0.100142 0.965504 -1.319183
v 0.080539 0.600209 -1.289327
v 0.106002 0.600210 -1.154469
v -0.106002 0.600210 -1.323865
v -0.106002 0.600210 -1.154469
vt 0.625000 0.500000
vt 0.875000 0.500000
vt 0.875000 0.750000
vt 0.625000 0.750000
vt 0.549807 0.750000
vt 0.625000 1.000000
vt 0.549807 1.000000
vt 0.549807 0.000000
vt 0.625000 0.000000
vt 0.625000 0.250000
vt 0.549807 0.250000
vt 0.125000 0.500000
vt 0.375000 0.500000
vt 0.375000 0.750000
vt 0.125000 0.750000
vt 0.549807 0.500000
vt 0.462403 0.250000
vt 0.462403 0.500000
vt 0.462403 0.750000
vt 0.462403 0.000000
vt 0.462403 1.000000
vt 0.375000 1.000000
vt 0.375000 0.000000
vt 0.375000 0.250000
vn 0.0371 0.9982 -0.0464
vn -0.1123 -0.0796 0.9905
vn -0.9821 -0.0957 0.1621
vn 0.0454 -0.9974 0.0568
vn 0.9958 -0.0780 -0.0480
vn 0.0791 -0.0275 -0.9965
vn 0.0889 -0.0374 -0.9953
vn 0.9960 -0.0228 -0.0860
vn -0.9952 0.0529 0.0819
vn -0.0594 0.0463 0.9972
vn 0.0000 -0.0475 0.9989
vn -0.9983 -0.0576 0.0075
vn 0.9942 -0.0347 -0.1020
vn 0.0802 -0.0233 -0.9965
usemtl Material
s off
f 17/25/15 21/26/15 23/27/15 19/28/15
f 27/29/16 19/28/16 23/30/16 26/31/16
f 26/32/17 23/33/17 21/34/17 28/35/17
f 22/36/18 18/37/18 20/38/18 24/39/18
f 25/40/19 17/25/19 19/28/19 27/29/19
f 28/35/20 21/34/20 17/25/20 25/40/20
f 31/41/21 28/35/21 25/40/21 29/42/21
f 29/42/22 25/40/22 27/29/22 30/43/22
f 32/44/23 26/32/23 28/35/23 31/41/23
f 30/43/24 27/29/24 26/31/24 32/45/24
f 20/38/25 30/43/25 32/45/25 24/46/25
f 24/47/26 32/44/26 31/41/26 22/48/26
f 18/37/27 29/42/27 30/43/27 20/38/27
f 22/48/28 31/41/28 29/42/28 18/37/28
o Cube.001_Cube.007
v 0.043758 0.898253 1.747213
v 0.026649 0.883797 -1.522570
v 0.050649 0.719491 1.814059
v 0.026649 0.770505 -1.522570
v -0.050649 0.934811 1.814059
v -0.027156 0.875492 -1.555091
v -0.039152 0.744908 1.787100
v -0.026649 0.770505 -1.522570
v 0.037644 0.907167 0.964554
v -0.028271 0.769955 0.950743
v 0.037644 0.747136 0.964554
v -0.037644 0.907167 0.964554
v 0.030275 0.877312 0.013744
v 0.039846 0.742454 0.013744
v -0.039846 0.911849 0.013744
v -0.039846 0.742454 0.013744
v 0.018475 0.880144 -0.657281
v 0.085397 0.754706 -0.657280
v -0.034303 0.895969 -0.671485
v -0.034082 0.754706 -0.657280
vt 0.625000 0.500000
vt 0.875000 0.500000
vt 0.875000 0.750000
vt 0.625000 0.750000
vt 0.549807 0.750000
vt 0.625000 1.000000
vt 0.549807 1.000000
vt 0.549807 0.000000
vt 0.625000 0.000000
vt 0.625000 0.250000
vt 0.549807 0.250000
vt 0.125000 0.500000
vt 0.375000 0.500000
vt 0.375000 0.750000
vt 0.125000 0.750000
vt 0.549807 0.500000
vt 0.462403 0.250000
vt 0.462403 0.500000
vt 0.462403 0.750000
vt 0.462403 0.000000
vt 0.462403 1.000000
vt 0.424228 0.750000
vt 0.424228 1.000000
vt 0.424228 0.000000
vt 0.424228 0.250000
vt 0.424228 0.500000
vt 0.375000 0.250000
vt 0.375000 0.000000
vt 0.375000 1.000000
vn 0.2474 0.1164 0.9619
vn -0.2887 -0.9570 -0.0295
vn -0.9980 -0.0619 -0.0140
vn 0.2976 -0.1400 -0.9444
vn 0.9998 0.0181 -0.0113
vn 0.2067 0.9784 -0.0104
vn 0.2311 0.9728 -0.0140
vn 0.9995 0.0324 -0.0033
vn -0.9995 -0.0309 0.0077
vn -0.1564 -0.9875 0.0176
vn 0.0000 -0.9998 -0.0183
vn -1.0000 -0.0011 -0.0083
vn 0.9591 0.2818 0.0273
vn 0.3802 0.9248 -0.0107
vn 0.0743 0.9972 -0.0089
vn 0.9626 0.2698 -0.0251
vn -1.0000 -0.0045 -0.0083
usemtl Material
s off
f 33/49/29 37/50/29 39/51/29 35/52/29
f 43/53/30 35/52/30 39/54/30 42/55/30
f 42/56/31 39/57/31 37/58/31 44/59/31
f 38/60/32 34/61/32 36/62/32 40/63/32
f 41/64/33 33/49/33 35/52/33 43/53/33
f 44/59/34 37/58/34 33/49/34 41/64/34
f 47/65/35 44/59/35 41/64/35 45/66/35
f 45/66/36 41/64/36 43/53/36 46/67/36
f 48/68/37 42/56/37 44/59/37 47/65/37
f 46/67/38 43/53/38 42/55/38 48/69/38
f 50/70/39 46/67/39 48/69/39 52/71/39
f 52/72/40 48/68/40 47/65/40 51/73/40
f 49/74/41 45/66/41 46/67/41 50/70/41
f 51/73/42 47/65/42 45/66/42 49/74/42
f 38/75/43 51/73/43 49/74/43 34/61/43
f 34/61/44 49/74/44 50/70/44 36/62/44
f 40/76/45 52/72/45 51/73/45 38/75/45
f 36/62/39 50/70/39 52/71/39 40/77/39
o Cube.002_Cube.008
v 0.043758 0.440044 1.747213
v 0.026649 0.425589 -1.522570
v 0.050649 0.297819 1.814059
v 0.026649 0.312297 -1.522570
v -0.004524 0.440171 1.814059
v -0.027156 0.417284 -1.555091
v -0.039152 0.286699 1.787100
v -0.026649 0.312297 -1.522570
v 0.037644 0.448958 0.964554
v -0.028271 0.311747 0.950743
v 0.037644 0.371578 0.964554
v -0.037644 0.448958 0.964554
v 0.030275 0.419103 0.013744
v 0.039846 0.284245 0.013744
v -0.039846 0.428941 0.013744
v -0.039846 0.284245 0.013744
vt 0.625000 0.500000
vt 0.875000 0.500000
vt 0.875000 0.750000
vt 0.625000 0.750000
vt 0.549807 0.750000
vt 0.625000 1.000000
vt 0.549807 1.000000
vt 0.549807 0.000000
vt 0.625000 0.000000
vt 0.625000 0.250000
vt 0.549807 0.250000
vt 0.125000 0.500000
vt 0.375000 0.500000
vt 0.375000 0.750000
vt 0.125000 0.750000
vt 0.549807 0.500000
vt 0.462403 0.250000
vt 0.462403 0.500000
vt 0.462403 0.750000
vt 0.462403 0.000000
vt 0.462403 1.000000
vt 0.375000 1.000000
vt 0.375000 0.000000
vt 0.375000 0.250000
vn 0.2684 0.1040 0.9577
vn 0.4256 -0.9033 -0.0535
vn -0.9963 0.0845 0.0148
vn 0.2976 -0.1400 -0.9444
vn 0.9995 0.0282 -0.0103
vn 0.0068 0.9999 0.0107
vn 0.0675 0.9974 -0.0265
vn 0.9990 0.0451 -0.0055
vn -0.9994 -0.0336 0.0081
vn 0.3751 -0.9254 0.0544
vn 0.0000 -0.9998 -0.0183
vn -1.0000 -0.0031 -0.0084
vn 0.9992 0.0385 -0.0050
vn 0.0128 0.9999 -0.0016
usemtl Material
s off
f 53/78/46 57/79/46 59/80/46 55/81/46
f 63/82/47 55/81/47 59/83/47 62/84/47
f 62/85/48 59/86/48 57/87/48 64/88/48
f 58/89/49 54/90/49 56/91/49 60/92/49
f 61/93/50 53/78/50 55/81/50 63/82/50
f 64/88/51 57/87/51 53/78/51 61/93/51
f 67/94/52 64/88/52 61/93/52 65/95/52
f 65/95/53 61/93/53 63/82/53 66/96/53
f 68/97/54 62/85/54 64/88/54 67/94/54
f 66/96/55 63/82/55 62/84/55 68/98/55
f 56/91/56 66/96/56 68/98/56 60/99/56
f 60/100/57 68/97/57 67/94/57 58/101/57
f 54/90/58 65/95/58 66/96/58 56/91/58
f 58/101/59 67/94/59 65/95/59 54/90/59
o Icosphere
v 0.077118 0.886279 -1.229757
v 0.046350 0.862774 -1.252111
v 0.088870 0.862774 -1.265927
v 0.115150 0.862774 -1.229757
v 0.088870 0.862774 -1.193587
v 0.046350 0.862774 -1.207403
v 0.065366 0.824742 -1.265927
v 0.107886 0.824742 -1.252111
v 0.107886 0.824742 -1.207403
v 0.065366 0.824742 -1.193587
v 0.039087 0.824742 -1.229757
v 0.077118 0.801238 -1.229757
vt 0.818181 0.000000
vt 0.909090 0.157461
vt 0.727272 0.157461
vt 0.545454 0.157461
vt 0.636363 0.000000
vt 0.090909 0.000000
vt 0.181818 0.157461
vt 0.000000 0.157461
vt 0.272727 0.000000
vt 0.363636 0.157461
vt 0.454545 0.000000
vt 0.636363 0.314921
vt 0.818181 0.314921
vt 0.090909 0.314921
vt 0.272727 0.314921
vt 0.454545 0.314921
vt 1.000000 0.314921
vt 0.727272 0.472382
vt 0.909090 0.472382
vt 0.181818 0.472382
vt 0.363636 0.472382
vt 0.545454 0.472382
vn -0.1876 0.7947 -0.5774
vn -0.6071 0.7947 0.0000
vn 0.4911 0.7947 -0.3568
vn 0.4911 0.7947 0.3568
vn -0.1876 0.7947 0.5774
vn -0.9822 0.1876 0.0000
vn -0.3035 0.1876 -0.9342
vn 0.7946 0.1876 -0.5774
vn 0.7946 0.1876 0.5774
vn -0.3035 0.1876 0.9342
vn -0.7947 -0.1876 -0.5774
vn 0.3035 -0.1876 -0.9342
vn 0.9822 -0.1876 0.0000
vn 0.3035 -0.1876 0.9342
vn -0.7947 -0.1876 0.5774
vn -0.4911 -0.7947 -0.3568
vn 0.1876 -0.7947 -0.5774
vn 0.6071 -0.7947 0.0000
vn 0.1876 -0.7947 0.5774
vn -0.4911 -0.7947 0.3568
usemtl None
s off
f 69/102/60 71/103/60 70/104/60
f 70/104/61 74/105/61 69/106/61
f 69/107/62 72/108/62 71/109/62
f 69/110/63 73/111/63 72/108/63
f 69/112/64 74/105/64 73/111/64
f 70/104/65 79/113/65 74/105/65
f 71/103/66 75/114/66 70/104/66
f 72/108/67 76/115/67 71/109/67
f 73/111/68 77/116/68 72/108/68
f 74/105/69 78/117/69 73/111/69
f 70/104/70 75/114/70 79/113/70
f 71/103/71 76/118/71 75/114/71
f 72/108/72 77/116/72 76/115/72
f 73/111/73 78/117/73 77/116/73
f 74/105/74 79/113/74 78/117/74
f 75/114/75 80/119/75 79/113/75
f 76/118/76 80/120/76 75/114/76
f 77/116/77 80/121/77 76/115/77
f 78/117/78 80/122/78 77/116/78
f 79/113/79 80/123/79 78/117/79
o Icosphere.001
v 0.077118 0.421317 -1.229757
v 0.052445 0.402469 -1.247683
v 0.086542 0.402469 -1.258762
v 0.107616 0.402469 -1.229757
v 0.086542 0.402469 -1.200752
v 0.052445 0.402469 -1.211831
v 0.067694 0.371970 -1.258762
v 0.101792 0.371970 -1.247683
v 0.101792 0.371970 -1.211831
v 0.067694 0.371970 -1.200752
v 0.046620 0.371970 -1.229757
v 0.077118 0.353121 -1.229757
vt 0.818181 0.000000
vt 0.909090 0.157461
vt 0.727272 0.157461
vt 0.545454 0.157461
vt 0.636363 0.000000
vt 0.090909 0.000000
vt 0.181818 0.157461
vt 0.000000 0.157461
vt 0.272727 0.000000
vt 0.363636 0.157461
vt 0.454545 0.000000
vt 0.636363 0.314921
vt 0.818181 0.314921
vt 0.090909 0.314921
vt 0.272727 0.314921
vt 0.454545 0.314921
vt 1.000000 0.314921
vt 0.727272 0.472382
vt 0.909090 0.472382
vt 0.181818 0.472382
vt 0.363636 0.472382
vt 0.545454 0.472382
vn -0.1876 0.7947 -0.5774
vn -0.6071 0.7947 0.0000
vn 0.4911 0.7947 -0.3568
vn 0.4911 0.7947 0.3568
vn -0.1876 0.7947 0.5774
vn -0.9822 0.1876 0.0000
vn -0.3035 0.1876 -0.9342
vn 0.7947 0.1876 -0.5774
vn 0.7946 0.1876 0.5774
vn -0.3035 0.1876 0.9342
vn -0.7947 -0.1876 -0.5774
vn 0.3035 -0.1876 -0.9342
vn 0.9822 -0.1876 0.0000
vn 0.3035 -0.1876 0.9342
vn -0.7946 -0.1876 0.5774
vn -0.4911 -0.7947 -0.3568
vn 0.1876 -0.7947 -0.5774
vn 0.6071 -0.7947 0.0000
vn 0.1876 -0.7947 0.5774
vn -0.4911 -0.7947 0.3568
usemtl None
s off
f 81/124/80 83/125/80 82/126/80
f 82/126/81 86/127/81 81/128/81
f 81/129/82 84/130/82 83/131/82
f 81/132/83 85/133/83 84/130/83
f 81/134/84 86/127/84 85/133/84
f 82/126/85 91/135/85 86/127/85
f 83/125/86 87/136/86 82/126/86
f 84/130/87 88/137/87 83/131/87
f 85/133/88 89/138/88 84/130/88
f 86/127/89 90/139/89 85/133/89
f 82/126/90 87/136/90 91/135/90
f 83/125/91 88/140/91 87/136/91
f 84/130/92 89/138/92 88/137/92
f 85/133/93 90/139/93 89/138/93
f 86/127/94 91/135/94 90/139/94
f 87/136/95 92/141/95 91/135/95
f 88/140/96 92/142/96 87/136/96
f 89/138/97 92/143/97 88/137/97
f 90/139/98 92/144/98 89/138/98
f 91/135/99 92/145/99 90/139/99
o Icosphere.002
v 0.077118 0.426560 1.451943
v 0.048651 0.404813 1.431261
v 0.087991 0.404813 1.418478
v 0.112305 0.404813 1.451943
v 0.087991 0.404813 1.485408
v 0.048651 0.404813 1.472625
v 0.066245 0.369626 1.418478
v 0.105585 0.369626 1.431261
v 0.105585 0.369626 1.472625
v 0.066245 0.369626 1.485408
v 0.041931 0.369626 1.451943
v 0.077118 0.347879 1.451943
vt 0.818181 0.000000
vt 0.909090 0.157461
vt 0.727272 0.157461
vt 0.545454 0.157461
vt 0.636363 0.000000
vt 0.090909 0.000000
vt 0.181818 0.157461
vt 0.000000 0.157461
vt 0.272727 0.000000
vt 0.363636 0.157461
vt 0.454545 0.000000
vt 0.636363 0.314921
vt 0.818181 0.314921
vt 0.090909 0.314921
vt 0.272727 0.314921
vt 0.454545 0.314921
vt 1.000000 0.314921
vt 0.727272 0.472382
vt 0.909090 0.472382
vt 0.181818 0.472382
vt 0.363636 0.472382
vt 0.545454 0.472382
vn -0.1876 0.7947 -0.5774
vn -0.6071 0.7947 0.0000
vn 0.4911 0.7947 -0.3568
vn 0.4911 0.7947 0.3568
vn -0.1876 0.7947 0.5774
vn -0.9822 0.1876 0.0000
vn -0.3035 0.1876 -0.9342
vn 0.7946 0.1876 -0.5774
vn 0.7946 0.1876 0.5774
vn -0.3035 0.1876 0.9342
vn -0.7946 -0.1876 -0.5774
vn 0.3035 -0.1876 -0.9342
vn 0.9822 -0.1876 0.0000
vn 0.3035 -0.1876 0.9342
vn -0.7946 -0.1876 0.5774
vn -0.4911 -0.7947 -0.3568
vn 0.1876 -0.7947 -0.5774
vn 0.6071 -0.7947 0.0000
vn 0.1876 -0.7947 0.5774
vn -0.4911 -0.7947 0.3568
usemtl None
s off
f 93/146/100 95/147/100 94/148/100
f 94/148/101 98/149/101 93/150/101
f 93/151/102 96/152/102 95/153/102
f 93/154/103 97/155/103 96/152/103
f 93/156/104 98/149/104 97/155/104
f 94/148/105 103/157/105 98/149/105
f 95/147/106 99/158/106 94/148/106
f 96/152/107 100/159/107 95/153/107
f 97/155/108 101/160/108 96/152/108
f 98/149/109 102/161/109 97/155/109
f 94/148/110 99/158/110 103/157/110
f 95/147/111 100/162/111 99/158/111
f 96/152/112 101/160/112 100/159/112
f 97/155/113 102/161/113 101/160/113
f 98/149/114 103/157/114 102/161/114
f 99/158/115 104/163/115 103/157/115
f 100/162/116 104/164/116 99/158/116
f 101/160/117 104/165/117 100/159/117
f 102/161/118 104/166/118 101/160/118
f 103/157/119 104/167/119 102/161/119
o Icosphere.003
v 0.077118 0.869007 1.451943
v 0.048651 0.847260 1.431261
v 0.087991 0.847260 1.418478
v 0.112305 0.847260 1.451943
v 0.087991 0.847260 1.485408
v 0.048651 0.847260 1.472625
v 0.066245 0.812072 1.418478
v 0.105585 0.812072 1.431261
v 0.105585 0.812072 1.472625
v 0.066245 0.812072 1.485408
v 0.041931 0.812072 1.451943
v 0.077118 0.790325 1.451943
vt 0.818181 0.000000
vt 0.909090 0.157461
vt 0.727272 0.157461
vt 0.545454 0.157461
vt 0.636363 0.000000
vt 0.090909 0.000000
vt 0.181818 0.157461
vt 0.000000 0.157461
vt 0.272727 0.000000
vt 0.363636 0.157461
vt 0.454545 0.000000
vt 0.636363 0.314921
vt 0.818181 0.314921
vt 0.090909 0.314921
vt 0.272727 0.314921
vt 0.454545 0.314921
vt 1.000000 0.314921
vt 0.727272 0.472382
vt 0.909090 0.472382
vt 0.181818 0.472382
vt 0.363636 0.472382
vt 0.545454 0.472382
vn -0.1876 0.7946 -0.5774
vn -0.6071 0.7947 0.0000
vn 0.4911 0.7947 -0.3568
vn 0.4911 0.7947 0.3568
vn -0.1876 0.7946 0.5774
vn -0.9822 0.1876 0.0000
vn -0.3035 0.1876 -0.9342
vn 0.7946 0.1876 -0.5774
vn 0.7946 0.1876 0.5774
vn -0.3035 0.1876 0.9342
vn -0.7946 -0.1876 -0.5774
vn 0.3035 -0.1876 -0.9342
vn 0.9822 -0.1876 0.0000
vn 0.3035 -0.1876 0.9342
vn -0.7946 -0.1876 0.5774
vn -0.4911 -0.7947 -0.3568
vn 0.1876 -0.7947 -0.5774
vn 0.6071 -0.7947 0.0000
vn 0.1876 -0.7947 0.5774
vn -0.4911 -0.7947 0.3568
usemtl None
s off
f 105/168/120 107/169/120 106/170/120
f 106/170/121 110/171/121 105/172/121
f 105/173/122 108/174/122 107/175/122
f 105/176/123 109/177/123 108/174/123
f 105/178/124 110/171/124 109/177/124
f 106/170/125 115/179/125 110/171/125
f 107/169/126 111/180/126 106/170/126
f 108/174/127 112/181/127 107/175/127
f 109/177/128 113/182/128 108/174/128
f 110/171/129 114/183/129 109/177/129
f 106/170/130 111/180/130 115/179/130
f 107/169/131 112/184/131 111/180/131
f 108/174/132 113/182/132 112/181/132
f 109/177/133 114/183/133 113/182/133
f 110/171/134 115/179/134 114/183/134
f 111/180/135 116/185/135 115/179/135
f 112/184/136 116/186/136 111/180/136
f 113/182/137 116/187/137 112/181/137
f 114/183/138 116/188/138 113/182/138
f 115/179/139 116/189/139 114/183/139
