{
    "asset" : {
        "generator" : "Khronos glTF Blender I/O v1.3.48",
        "version" : "2.0"
    },
    "scene" : 0,
    "scenes" : [
        {
            "name" : "Scene",
            "nodes" : [
                0,
                1,
                2,
                3,
                4,
                5,
                6,
                7
            ]
        }
    ],
    "nodes" : [
        {
            "mesh" : 0,
            "name" : "Cube",
            "scale" : [
                1,
                0.9495500922203064,
                1
            ],
            "translation" : [
                0,
                0,
                -1.164222002029419
            ]
        },
        {
            "mesh" : 1,
            "name" : "Cube.006",
            "scale" : [
                1,
                0.8441336154937744,
                1
            ],
            "translation" : [
                0,
                0,
                -3.8400027751922607
            ]
        },
        {
            "mesh" : 2,
            "name" : "Cube.001",
            "rotation" : [
                0.7071068286895752,
                0,
                0,
                0.7071068286895752
            ],
            "scale" : [
                0.37590301036834717,
                2.1971631050109863,
                1
            ],
            "translation" : [
                0,
                3.4279870986938477,
                -1.5485183000564575
            ]
        },
        {
            "mesh" : 3,
            "name" : "Cube.002",
            "rotation" : [
                0.7071068286895752,
                0,
                0,
                0.7071068286895752
            ],
            "scale" : [
                0.37590301036834717,
                2.1971631050109863,
                1
            ],
            "translation" : [
                0,
                2.969778537750244,
                -1.5485183000564575
            ]
        },
        {
            "mesh" : 4,
            "name" : "Icosphere",
            "scale" : [
                -0.042520686984062195,
                -0.042520686984062195,
                -0.042520686984062195
            ],
            "translation" : [
                0.07711824029684067,
                0.8437583446502686,
                -1.2297571897506714
            ]
        },
        {
            "mesh" : 5,
            "name" : "Icosphere.001",
            "scale" : [
                -0.034097928553819656,
                -0.034097928553819656,
                -0.034097928553819656
            ],
            "translation" : [
                0.07711824029684067,
                0.3872194290161133,
                -1.2297571897506714
            ]
        },
        {
            "mesh" : 6,
            "name" : "Icosphere.002",
            "scale" : [
                -0.03934064134955406,
                -0.03934064134955406,
                -0.03934064134955406
            ],
            "translation" : [
                0.07711824029684067,
                0.3872194290161133,
                1.4519429206848145
            ]
        },
        {
            "mesh" : 7,
            "name" : "Icosphere.003",
            "scale" : [
                -0.03934064134955406,
                -0.03934064134955406,
                -0.03934064134955406
            ],
            "translation" : [
                0.07711824029684067,
                0.8296658992767334,
                1.4519429206848145
            ]
        }
    ],
    "materials" : [
        {
            "doubleSided" : true,
            "emissiveFactor" : [
                0,
                0,
                0
            ],
            "name" : "Material",
            "pbrMetallicRoughness" : {
                "baseColorFactor" : [
                    0.800000011920929,
                    0.800000011920929,
                    0.800000011920929,
                    1
                ],
                "metallicFactor" : 0,
                "roughnessFactor" : 0.4000000059604645
            }
        }
    ],
    "meshes" : [
        {
            "name" : "Cube",
            "primitives" : [
                {
                    "attributes" : {
                        "POSITION" : 0,
                        "NORMAL" : 1,
                        "TEXCOORD_0" : 2
                    },
                    "indices" : 3,
                    "material" : 0
                }
            ]
        },
        {
            "name" : "Cube.006",
            "primitives" : [
                {
                    "attributes" : {
                        "POSITION" : 4,
                        "NORMAL" : 5,
                        "TEXCOORD_0" : 6
                    },
                    "indices" : 3,
                    "material" : 0
                }
            ]
        },
        {
            "name" : "Cube.007",
            "primitives" : [
                {
                    "attributes" : {
                        "POSITION" : 7,
                        "NORMAL" : 8,
                        "TEXCOORD_0" : 9
                    },
                    "indices" : 10,
                    "material" : 0
                }
            ]
        },
        {
            "name" : "Cube.008",
            "primitives" : [
                {
                    "attributes" : {
                        "POSITION" : 11,
                        "NORMAL" : 12,
                        "TEXCOORD_0" : 13
                    },
                    "indices" : 3,
                    "material" : 0
                }
            ]
        },
        {
            "name" : "Icosphere",
            "primitives" : [
                {
                    "attributes" : {
                        "POSITION" : 14,
                        "NORMAL" : 15,
                        "TEXCOORD_0" : 16
                    },
                    "indices" : 17
                }
            ]
        },
        {
            "name" : "Icosphere.001",
            "primitives" : [
                {
                    "attributes" : {
                        "POSITION" : 18,
                        "NORMAL" : 19,
                        "TEXCOORD_0" : 20
                    },
                    "indices" : 17
                }
            ]
        },
        {
            "name" : "Icosphere.002",
            "primitives" : [
                {
                    "attributes" : {
                        "POSITION" : 21,
                        "NORMAL" : 22,
                        "TEXCOORD_0" : 23
                    },
                    "indices" : 17
                }
            ]
        },
        {
            "name" : "Icosphere.003",
            "primitives" : [
                {
                    "attributes" : {
                        "POSITION" : 24,
                        "NORMAL" : 25,
                        "TEXCOORD_0" : 26
                    },
                    "indices" : 17
                }
            ]
        }
    ],
    "accessors" : [
        {
            "bufferView" : 0,
            "componentType" : 5126,
            "count" : 56,
            "max" : [
                0.13473929464817047,
                1.4015111923217773,
                2.7084953784942627
            ],
            "min" : [
                -0.1347392350435257,
                -0.0029912730678915977,
                2.493176221847534
            ],
            "type" : "VEC3"
        },
        {
            "bufferView" : 1,
            "componentType" : 5126,
            "count" : 56,
            "type" : "VEC3"
        },
        {
            "bufferView" : 2,
            "componentType" : 5126,
            "count" : 56,
            "type" : "VEC2"
        },
        {
            "bufferView" : 3,
            "componentType" : 5123,
            "count" : 84,
            "type" : "SCALAR"
        },
        {
            "bufferView" : 4,
            "componentType" : 5126,
            "count" : 56,
            "max" : [
                0.13473929464817047,
                1.5304179191589355,
                2.7084953784942627
            ],
            "min" : [
                -0.1347392350435257,
                -0.0029912730678915977,
                2.493176221847534
            ],
            "type" : "VEC3"
        },
        {
            "bufferView" : 5,
            "componentType" : 5126,
            "count" : 56,
            "type" : "VEC3"
        },
        {
            "bufferView" : 6,
            "componentType" : 5126,
            "count" : 56,
            "type" : "VEC2"
        },
        {
            "bufferView" : 7,
            "componentType" : 5126,
            "count" : 72,
            "max" : [
                0.22717702388763428,
                1.5304179191589355,
                2.7084953784942627
            ],
            "min" : [
                -0.1347392350435257,
                -0.0029912730678915977,
                2.493176221847534
            ],
            "type" : "VEC3"
        },
        {
            "bufferView" : 8,
            "componentType" : 5126,
            "count" : 72,
            "type" : "VEC3"
        },
        {
            "bufferView" : 9,
            "componentType" : 5126,
            "count" : 72,
            "type" : "VEC2"
        },
        {
            "bufferView" : 10,
            "componentType" : 5123,
            "count" : 108,
            "type" : "SCALAR"
        },
        {
            "bufferView" : 11,
            "componentType" : 5126,
            "count" : 56,
            "max" : [
                0.13473929464817047,
                1.5304179191589355,
                2.6855335235595703
            ],
            "min" : [
                -0.10600198805332184,
                -0.0029912730678915977,
                2.520820140838623
            ],
            "type" : "VEC3"
        },
        {
            "bufferView" : 12,
            "componentType" : 5126,
            "count" : 56,
            "type" : "VEC3"
        },
        {
            "bufferView" : 13,
            "componentType" : 5126,
            "count" : 56,
            "type" : "VEC2"
        },
        {
            "bufferView" : 14,
            "componentType" : 5126,
            "count" : 60,
            "max" : [
                0.8944249749183655,
                1,
                0.8506399989128113
            ],
            "min" : [
                -0.8944249749183655,
                -1,
                -0.8506399989128113
            ],
            "type" : "VEC3"
        },
        {
            "bufferView" : 15,
            "componentType" : 5126,
            "count" : 60,
            "type" : "VEC3"
        },
        {
            "bufferView" : 16,
            "componentType" : 5126,
            "count" : 60,
            "type" : "VEC2"
        },
        {
            "bufferView" : 17,
            "componentType" : 5123,
            "count" : 60,
            "type" : "SCALAR"
        },
        {
            "bufferView" : 18,
            "componentType" : 5126,
            "count" : 60,
            "max" : [
                0.8944249749183655,
                1,
                0.8506399989128113
            ],
            "min" : [
                -0.8944249749183655,
                -1,
                -0.8506399989128113
            ],
            "type" : "VEC3"
        },
        {
            "bufferView" : 19,
            "componentType" : 5126,
            "count" : 60,
            "type" : "VEC3"
        },
        {
            "bufferView" : 20,
            "componentType" : 5126,
            "count" : 60,
            "type" : "VEC2"
        },
        {
            "bufferView" : 21,
            "componentType" : 5126,
            "count" : 60,
            "max" : [
                0.8944249749183655,
                1,
                0.8506399989128113
            ],
            "min" : [
                -0.8944249749183655,
                -1,
                -0.8506399989128113
            ],
            "type" : "VEC3"
        },
        {
            "bufferView" : 22,
            "componentType" : 5126,
            "count" : 60,
            "type" : "VEC3"
        },
        {
            "bufferView" : 23,
            "componentType" : 5126,
            "count" : 60,
            "type" : "VEC2"
        },
        {
            "bufferView" : 24,
            "componentType" : 5126,
            "count" : 60,
            "max" : [
                0.8944249749183655,
                1,
                0.8506399989128113
            ],
            "min" : [
                -0.8944249749183655,
                -1,
                -0.8506399989128113
            ],
            "type" : "VEC3"
        },
        {
            "bufferView" : 25,
            "componentType" : 5126,
            "count" : 60,
            "type" : "VEC3"
        },
        {
            "bufferView" : 26,
            "componentType" : 5126,
            "count" : 60,
            "type" : "VEC2"
        }
    ],
    "bufferViews" : [
        {
            "buffer" : 0,
            "byteLength" : 672,
            "byteOffset" : 0
        },
        {
            "buffer" : 0,
            "byteLength" : 672,
            "byteOffset" : 672
        },
        {
            "buffer" : 0,
            "byteLength" : 448,
            "byteOffset" : 1344
        },
        {
            "buffer" : 0,
            "byteLength" : 168,
            "byteOffset" : 1792
        },
        {
            "buffer" : 0,
            "byteLength" : 672,
            "byteOffset" : 1960
        },
        {
            "buffer" : 0,
            "byteLength" : 672,
            "byteOffset" : 2632
        },
        {
            "buffer" : 0,
            "byteLength" : 448,
            "byteOffset" : 3304
        },
        {
            "buffer" : 0,
            "byteLength" : 864,
            "byteOffset" : 3752
        },
        {
            "buffer" : 0,
            "byteLength" : 864,
            "byteOffset" : 4616
        },
        {
            "buffer" : 0,
            "byteLength" : 576,
            "byteOffset" : 5480
        },
        {
            "buffer" : 0,
            "byteLength" : 216,
            "byteOffset" : 6056
        },
        {
            "buffer" : 0,
            "byteLength" : 672,
            "byteOffset" : 6272
        },
        {
            "buffer" : 0,
            "byteLength" : 672,
            "byteOffset" : 6944
        },
        {
            "buffer" : 0,
            "byteLength" : 448,
            "byteOffset" : 7616
        },
        {
            "buffer" : 0,
            "byteLength" : 720,
            "byteOffset" : 8064
        },
        {
            "buffer" : 0,
            "byteLength" : 720,
            "byteOffset" : 8784
        },
        {
            "buffer" : 0,
            "byteLength" : 480,
            "byteOffset" : 9504
        },
        {
            "buffer" : 0,
            "byteLength" : 120,
            "byteOffset" : 9984
        },
        {
            "buffer" : 0,
            "byteLength" : 720,
            "byteOffset" : 10104
        },
        {
            "buffer" : 0,
            "byteLength" : 720,
            "byteOffset" : 10824
        },
        {
            "buffer" : 0,
            "byteLength" : 480,
            "byteOffset" : 11544
        },
        {
            "buffer" : 0,
            "byteLength" : 720,
            "byteOffset" : 12024
        },
        {
            "buffer" : 0,
            "byteLength" : 720,
            "byteOffset" : 12744
        },
        {
            "buffer" : 0,
            "byteLength" : 480,
            "byteOffset" : 13464
        },
        {
            "buffer" : 0,
            "byteLength" : 720,
            "byteOffset" : 13944
        },
        {
            "buffer" : 0,
            "byteLength" : 720,
            "byteOffset" : 14664
        },
        {
            "buffer" : 0,
            "byteLength" : 480,
            "byteOffset" : 15384
        }
    ],
    "buffers" : [
        {
            "byteLength" : 15864,
            "uri" : "data:application/octet-stream;base64,"
        }
    ]
}
