# Blender v2.90.1 OBJ File: 'hedge.blend'
# www.blender.org
mtllib hedge.mtl
o Cube.001_Cube.002
v 0.720029 1.892342 -1.850860
v 0.796936 0.023151 -1.964958
v 0.620929 1.813341 1.848959
v 0.812480 0.047669 1.918434
v 0.152979 1.826678 -1.814457
v 0.001096 0.023151 -1.964958
v 0.141844 1.813341 1.848959
v 0.016640 0.019682 1.918434
v 0.000000 0.023397 1.591990
v 0.713570 1.935030 1.560374
v 0.129603 1.935030 1.560374
v 0.795840 0.023397 1.591990
v 0.290259 1.942986 -1.299325
v 0.795840 0.023397 -1.631790
v 0.000000 0.023397 -1.631790
v 0.737823 1.942986 -1.561902
v 0.768386 1.495384 -1.937467
v 0.105277 1.509513 1.935422
v 0.771652 1.516204 1.940270
v 0.060523 1.486652 -1.971798
v 0.761073 1.505849 1.591990
v -0.030951 1.505849 1.591990
v 0.752067 1.505849 -1.631790
v 0.044498 1.505849 -1.631790
v 0.000000 1.505849 -0.019900
v 0.752067 1.505849 -1.810889
v 0.033898 1.505849 1.790988
v 0.852594 1.505849 -0.019900
v 0.516319 1.495384 -1.937467
v 0.761073 1.505849 1.790988
v 0.044498 1.505849 -1.810889
v 0.510579 1.516204 1.935151
v 0.719690 1.874186 1.704666
v 0.135724 1.874186 1.704666
v 0.776059 1.931083 -0.141130
v 0.209931 1.939008 0.130525
v 0.718805 1.922843 0.931074
v 0.163125 1.998180 0.963681
vt -0.754579 1.566042
vt -0.463638 1.322826
vt -0.420476 1.387887
vt -0.667436 1.663136
vt -0.383604 1.854821
vt -0.257731 1.410677
vt -0.335518 1.671087
vt -0.290291 -0.264337
vt -0.527495 -0.258102
vt -0.446453 -0.380650
vt -0.274426 -0.430595
vt -0.283803 -0.348701
vt 0.388248 1.256498
vt 0.835717 1.533036
vt 0.653904 1.771769
vt 0.335827 1.401450
vt 1.095397 -0.665529
vt 0.836439 -0.665222
vt 0.868008 -0.741584
vt 0.899485 -0.817924
vt 1.090449 -0.860259
vt 1.095316 -0.770971
vt -0.723096 -0.650325
vt -0.422070 -0.860259
vt -0.365236 -0.683768
vt 1.095477 1.040185
vt 0.849915 1.002491
vt 0.843177 0.168635
vt 0.839251 -0.317244
vt 1.097288 0.187310
vt 0.361067 -0.294106
vt 0.835717 -0.596255
vt -0.504042 1.252050
vt -0.261409 1.232723
vt -0.255980 1.323954
vt -0.833325 1.067860
vt -0.508936 0.936948
vt -0.824983 1.468577
vt -0.864964 -0.451886
vt 0.298700 -0.441747
vt 0.618159 -0.838098
vt 1.101276 1.202593
vt 0.894073 1.155861
vt 1.095398 1.135060
vt -0.515769 0.496974
vt -0.278295 0.486422
vt 1.852728 1.216027
vt 1.864964 1.039875
vt 1.864964 -0.665243
vt 1.858038 -0.838062
vt -0.844974 0.508345
vn 0.0000 0.9214 0.3885
vn -0.0057 0.2785 0.9604
vn -0.9263 0.3690 0.0758
vn 0.0176 -0.9994 0.0306
vn 0.9651 0.2170 0.1468
vn -0.0201 0.3006 -0.9535
vn 0.9902 0.1398 0.0020
vn 0.0000 -1.0000 0.0000
vn -0.9129 0.3074 0.2685
vn 0.0671 0.9968 0.0436
vn -0.1164 0.9767 -0.1803
vn 0.0000 -1.0000 0.0007
vn 0.9978 0.0653 -0.0105
vn -0.9028 0.4286 -0.0350
vn -0.9999 0.0023 -0.0117
vn 0.9993 0.0273 0.0268
vn -0.9749 0.0129 0.2224
vn 1.0000 -0.0059 -0.0014
vn 0.0228 0.0107 -0.9997
vn 0.9987 0.0281 -0.0417
vn -0.9991 0.0322 -0.0263
vn -0.0030 -0.0121 0.9999
vn 0.0108 0.9999 0.0057
vn 0.0678 0.9974 -0.0230
usemtl Material.003
s off
f 33/1/1 34/2/1 7/3/1 3/4/1
f 19/5/2 3/4/2 7/3/2 18/6/2 32/7/2
f 24/8/3 13/9/3 5/10/3 20/11/3 31/12/3
f 9/13/4 12/14/4 4/15/4 8/16/4
f 21/17/5 10/18/5 33/19/5 3/20/5 19/21/5 30/22/5
f 20/11/6 5/10/6 1/23/6 17/24/6 29/25/6
f 23/26/7 16/27/7 35/28/7 37/29/7 10/18/7 21/17/7 28/30/7
f 15/31/8 14/32/8 12/14/8 9/13/8
f 18/6/9 7/3/9 34/2/9 11/33/9 22/34/9 27/35/9
f 37/36/10 38/37/10 11/33/10 10/38/10
f 1/23/11 5/10/11 13/9/11 16/39/11
f 6/40/12 2/41/12 14/32/12 15/31/12
f 17/42/13 1/43/13 16/27/13 23/26/13 26/44/13
f 22/34/14 11/33/14 38/37/14 36/45/14 13/9/14 24/8/14 25/46/14
f 9/13/15 22/34/15 25/46/15 24/8/15 15/31/15
f 2/47/16 17/42/16 26/44/16 23/26/16 14/48/16
f 8/16/17 18/6/17 27/35/17 22/34/17 9/13/17
f 14/48/18 23/26/18 28/30/18 21/17/18 12/49/18
f 6/40/19 20/11/19 29/25/19 17/24/19 2/41/19
f 12/49/20 21/17/20 30/22/20 19/21/20 4/50/20
f 15/31/21 24/8/21 31/12/21 20/11/21 6/40/21
f 4/15/22 19/5/22 32/7/22 18/6/22 8/16/22
f 10/38/1 11/33/1 34/2/1 33/1/1
f 16/39/23 13/9/23 36/45/23 35/51/23
f 35/51/24 36/45/24 38/37/24 37/36/24
