{
    "asset" : {
        "generator" : "Khronos glTF Blender I/O v1.2.75",
        "version" : "2.0"
    },
    "scene" : 0,
    "scenes" : [
        {
            "name" : "Scene",
            "nodes" : [
                0
            ]
        }
    ],
    "nodes" : [
        {
            "mesh" : 0,
            "name" : "Cube.001",
            "scale" : [
                0.5659021139144897,
                1.5163017511367798,
                1.2525019645690918
            ],
            "translation" : [
                0.23999999463558197,
                2,
                0.1731686145067215
            ]
        }
    ],
    "materials" : [
        {
            "doubleSided" : true,
            "emissiveFactor" : [
                0,
                0,
                0
            ],
            "name" : "Material.003",
            "pbrMetallicRoughness" : {
                "metallicFactor" : 0,
                "roughnessFactor" : 0.5
            }
        }
    ],
    "meshes" : [
        {
            "name" : "Cube.002",
            "primitives" : [
                {
                    "attributes" : {
                        "POSITION" : 0,
                        "NORMAL" : 1,
                        "TEXCOORD_0" : 2
                    },
                    "indices" : 3,
                    "material" : 0
                }
            ]
        }
    ],
    "accessors" : [
        {
            "bufferView" : 0,
            "componentType" : 5126,
            "count" : 122,
            "max" : [
                0.42752137780189514,
                0.6580144166946411,
                1.8398005962371826
            ],
            "min" : [
                -0.4560236930847168,
                -1.3204832077026367,
                -2.1522090435028076
            ],
            "type" : "VEC3"
        },
        {
            "bufferView" : 1,
            "componentType" : 5126,
            "count" : 122,
            "type" : "VEC3"
        },
        {
            "bufferView" : 2,
            "componentType" : 5126,
            "count" : 122,
            "type" : "VEC2"
        },
        {
            "bufferView" : 3,
            "componentType" : 5123,
            "count" : 216,
            "type" : "SCALAR"
        }
    ],
    "bufferViews" : [
        {
            "buffer" : 0,
            "byteLength" : 1464,
            "byteOffset" : 0
        },
        {
            "buffer" : 0,
            "byteLength" : 1464,
            "byteOffset" : 1464
        },
        {
            "buffer" : 0,
            "byteLength" : 976,
            "byteOffset" : 2928
        },
        {
            "buffer" : 0,
            "byteLength" : 432,
            "byteOffset" : 3904
        }
    ],
    "buffers" : [
        {
            "byteLength" : 4336,
            "uri" : "data:application/octet-stream;base64,"
        }
    ]
}
