# Blender v2.90.1 OBJ File: 'wall_5x3_door_empty.blend'
# www.blender.org
mtllib wall_5x3_door_empty.mtl
o Wall
v 0.000000 0.000000 0.000000
v 0.000000 3.000000 0.000000
v -0.000000 0.000000 -5.000000
v -0.000000 3.000000 -5.000000
v 0.000000 2.202653 0.000000
v -0.000000 2.202653 -5.000000
v -0.000000 0.000000 -0.497035
v -0.000000 3.000000 -0.497035
v -0.000000 2.202653 -0.497035
v -0.000000 0.000000 -1.504740
v -0.000000 3.000000 -1.504741
v -0.000000 2.202653 -1.504741
v -0.200000 0.000000 0.000000
v -0.200000 3.000000 0.000000
v -0.200000 0.000000 -5.000000
v -0.200000 3.000000 -5.000000
v -0.200000 2.202653 0.000000
v -0.200000 2.202653 -5.000000
v -0.200000 0.000000 -0.497035
v -0.200000 3.000000 -0.497035
v -0.200000 2.202653 -0.497035
v -0.200000 0.000000 -1.504740
v -0.200000 3.000000 -1.504741
v -0.200000 2.202653 -1.504741
vn 1.0000 0.0000 -0.0000
vn -1.0000 -0.0000 0.0000
vn 0.0000 -0.0000 1.0000
vn -0.0000 -1.0000 0.0000
vn 0.0000 0.0000 -1.0000
vn 0.0000 1.0000 0.0000
usemtl Wall2_inside
s 1
f 12//1 6//1 4//1 11//1
f 10//1 3//1 6//1 12//1
f 1//1 7//1 9//1 5//1
f 5//1 9//1 8//1 2//1
f 9//1 12//1 11//1 8//1
usemtl Wall2_outside
f 24//2 23//2 16//2 18//2
f 22//2 24//2 18//2 15//2
f 13//2 17//2 21//2 19//2
f 17//2 14//2 20//2 21//2
f 21//2 20//2 23//2 24//2
usemtl Wall2_cuts
f 1//3 5//3 17//3 13//3
f 3//4 10//4 22//4 15//4
f 4//5 6//5 18//5 16//5
f 2//6 8//6 20//6 14//6
f 5//3 2//3 14//3 17//3
f 6//5 3//5 15//5 18//5
f 7//4 1//4 13//4 19//4
f 8//6 11//6 23//6 20//6
f 12//4 9//4 21//4 24//4
f 9//5 7//5 19//5 21//5
f 11//6 4//6 16//6 23//6
f 10//3 12//3 24//3 22//3
