{
    "asset" : {
        "generator" : "Khronos glTF Blender I/O v1.3.48",
        "version" : "2.0"
    },
    "scene" : 0,
    "scenes" : [
        {
            "name" : "Scene",
            "nodes" : [
                0,
                1
            ]
        }
    ],
    "nodes" : [
        {
            "mesh" : 0,
            "name" : "Windmill"
        },
        {
            "mesh" : 1,
            "name" : "Windblade",
            "translation" : [
                0,
                7.913882732391357,
                0
            ]
        }
    ],
    "animations" : [
        {
            "channels" : [
                {
                    "sampler" : 0,
                    "target" : {
                        "node" : 1,
                        "path" : "rotation"
                    }
                }
            ],
            "name" : "WindbladeAction",
            "samplers" : [
                {
                    "input" : 16,
                    "interpolation" : "LINEAR",
                    "output" : 17
                }
            ]
        }
    ],
    "materials" : [
        {
            "doubleSided" : true,
            "emissiveFactor" : [
                1,
                1,
                1
            ],
            "emissiveTexture" : {
                "index" : 0,
                "texCoord" : 0
            },
            "name" : "bricks",
            "pbrMetallicRoughness" : {}
        },
        {
            "doubleSided" : true,
            "emissiveFactor" : [
                1,
                1,
                1
            ],
            "emissiveTexture" : {
                "index" : 1,
                "texCoord" : 0
            },
            "name" : "roof",
            "pbrMetallicRoughness" : {}
        },
        {
            "doubleSided" : true,
            "emissiveFactor" : [
                1,
                1,
                1
            ],
            "emissiveTexture" : {
                "index" : 2,
                "texCoord" : 0
            },
            "name" : "wood",
            "pbrMetallicRoughness" : {}
        },
        {
            "doubleSided" : true,
            "emissiveFactor" : [
                1,
                1,
                1
            ],
            "emissiveTexture" : {
                "index" : 3,
                "texCoord" : 0
            },
            "name" : "blade",
            "pbrMetallicRoughness" : {}
        }
    ],
    "meshes" : [
        {
            "name" : "Cube",
            "primitives" : [
                {
                    "attributes" : {
                        "POSITION" : 0,
                        "NORMAL" : 1,
                        "TEXCOORD_0" : 2
                    },
                    "indices" : 3,
                    "material" : 0
                },
                {
                    "attributes" : {
                        "POSITION" : 4,
                        "NORMAL" : 5,
                        "TEXCOORD_0" : 6
                    },
                    "indices" : 7,
                    "material" : 1
                }
            ]
        },
        {
            "name" : "Cube.001",
            "primitives" : [
                {
                    "attributes" : {
                        "POSITION" : 8,
                        "NORMAL" : 9,
                        "TEXCOORD_0" : 10
                    },
                    "indices" : 11,
                    "material" : 2
                },
                {
                    "attributes" : {
                        "POSITION" : 12,
                        "NORMAL" : 13,
                        "TEXCOORD_0" : 14
                    },
                    "indices" : 15,
                    "material" : 3
                }
            ]
        }
    ],
    "textures" : [
        {
            "sampler" : 0,
            "source" : 0
        },
        {
            "source" : 1
        },
        {
            "sampler" : 1,
            "source" : 2
        },
        {
            "source" : 3
        }
    ],
    "images" : [
        {
            "bufferView" : 4,
            "mimeType" : "image/jpeg",
            "name" : "brik_lowres.png"
        },
        {
            "bufferView" : 9,
            "mimeType" : "image/jpeg",
            "name" : "roof_lowres.png"
        },
        {
            "bufferView" : 14,
            "mimeType" : "image/jpeg",
            "name" : "wood_lowres.png"
        },
        {
            "bufferView" : 19,
            "mimeType" : "image/png",
            "name" : "cloth_lowres"
        }
    ],
    "accessors" : [
        {
            "bufferView" : 0,
            "componentType" : 5126,
            "count" : 46,
            "max" : [
                2.6051669120788574,
                7,
                2.6051669120788574
            ],
            "min" : [
                -2.6051669120788574,
                0,
                -2.6051669120788574
            ],
            "type" : "VEC3"
        },
        {
            "bufferView" : 1,
            "componentType" : 5126,
            "count" : 46,
            "type" : "VEC3"
        },
        {
            "bufferView" : 2,
            "componentType" : 5126,
            "count" : 46,
            "type" : "VEC2"
        },
        {
            "bufferView" : 3,
            "componentType" : 5123,
            "count" : 78,
            "type" : "SCALAR"
        },
        {
            "bufferView" : 5,
            "componentType" : 5126,
            "count" : 28,
            "max" : [
                1.4111775159835815,
                9.233707427978516,
                1.4111775159835815
            ],
            "min" : [
                -1.4111775159835815,
                7,
                -1.4111775159835815
            ],
            "type" : "VEC3"
        },
        {
            "bufferView" : 6,
            "componentType" : 5126,
            "count" : 28,
            "type" : "VEC3"
        },
        {
            "bufferView" : 7,
            "componentType" : 5126,
            "count" : 28,
            "type" : "VEC2"
        },
        {
            "bufferView" : 8,
            "componentType" : 5123,
            "count" : 36,
            "type" : "SCALAR"
        },
        {
            "bufferView" : 10,
            "componentType" : 5126,
            "count" : 120,
            "max" : [
                4.317060470581055,
                4.3170599937438965,
                5.065319061279297
            ],
            "min" : [
                -4.317060470581055,
                -4.317060947418213,
                -0.22502213716506958
            ],
            "type" : "VEC3"
        },
        {
            "bufferView" : 11,
            "componentType" : 5126,
            "count" : 120,
            "type" : "VEC3"
        },
        {
            "bufferView" : 12,
            "componentType" : 5126,
            "count" : 120,
            "type" : "VEC2"
        },
        {
            "bufferView" : 13,
            "componentType" : 5123,
            "count" : 180,
            "type" : "SCALAR"
        },
        {
            "bufferView" : 15,
            "componentType" : 5126,
            "count" : 16,
            "max" : [
                4.167118072509766,
                4.167117595672607,
                4.629849433898926
            ],
            "min" : [
                -4.167118072509766,
                -4.167118549346924,
                4.629848003387451
            ],
            "type" : "VEC3"
        },
        {
            "bufferView" : 16,
            "componentType" : 5126,
            "count" : 16,
            "type" : "VEC3"
        },
        {
            "bufferView" : 17,
            "componentType" : 5126,
            "count" : 16,
            "type" : "VEC2"
        },
        {
            "bufferView" : 18,
            "componentType" : 5123,
            "count" : 24,
            "type" : "SCALAR"
        },
        {
            "bufferView" : 20,
            "componentType" : 5126,
            "count" : 80,
            "max" : [
                3.3333333333333335
            ],
            "min" : [
                0.041666666666666664
            ],
            "type" : "SCALAR"
        },
        {
            "bufferView" : 21,
            "componentType" : 5126,
            "count" : 80,
            "type" : "VEC4"
        }
    ],
    "bufferViews" : [
        {
            "buffer" : 0,
            "byteLength" : 552,
            "byteOffset" : 0
        },
        {
            "buffer" : 0,
            "byteLength" : 552,
            "byteOffset" : 552
        },
        {
            "buffer" : 0,
            "byteLength" : 368,
            "byteOffset" : 1104
        },
        {
            "buffer" : 0,
            "byteLength" : 156,
            "byteOffset" : 1472
        },
        {
            "buffer" : 0,
            "byteLength" : 28283,
            "byteOffset" : 1628
        },
        {
            "buffer" : 0,
            "byteLength" : 336,
            "byteOffset" : 29912
        },
        {
            "buffer" : 0,
            "byteLength" : 336,
            "byteOffset" : 30248
        },
        {
            "buffer" : 0,
            "byteLength" : 224,
            "byteOffset" : 30584
        },
        {
            "buffer" : 0,
            "byteLength" : 72,
            "byteOffset" : 30808
        },
        {
            "buffer" : 0,
            "byteLength" : 23193,
            "byteOffset" : 30880
        },
        {
            "buffer" : 0,
            "byteLength" : 1440,
            "byteOffset" : 54076
        },
        {
            "buffer" : 0,
            "byteLength" : 1440,
            "byteOffset" : 55516
        },
        {
            "buffer" : 0,
            "byteLength" : 960,
            "byteOffset" : 56956
        },
        {
            "buffer" : 0,
            "byteLength" : 360,
            "byteOffset" : 57916
        },
        {
            "buffer" : 0,
            "byteLength" : 16409,
            "byteOffset" : 58276
        },
        {
            "buffer" : 0,
            "byteLength" : 192,
            "byteOffset" : 74688
        },
        {
            "buffer" : 0,
            "byteLength" : 192,
            "byteOffset" : 74880
        },
        {
            "buffer" : 0,
            "byteLength" : 128,
            "byteOffset" : 75072
        },
        {
            "buffer" : 0,
            "byteLength" : 48,
            "byteOffset" : 75200
        },
        {
            "buffer" : 0,
            "byteLength" : 48565,
            "byteOffset" : 75248
        },
        {
            "buffer" : 0,
            "byteLength" : 320,
            "byteOffset" : 123816
        },
        {
            "buffer" : 0,
            "byteLength" : 1280,
            "byteOffset" : 124136
        }
    ],
    "samplers" : [
        {
            "magFilter" : 9728,
            "minFilter" : 9984
        },
        {
            "magFilter" : 9728,
            "minFilter" : 9984
        }
    ],
    "buffers" : [
        {
            "byteLength" : 125416,
            "uri" : "data:application/octet-stream;base64,"
        }
    ]
}
